<svg width="16" height="16" viewBox="0 0 16 16" fill="none" xmlns="http://www.w3.org/2000/svg">

<g id="Icon / Mode / Total Control / 16">
<path id="Vector" d="M13.2116 11.01L8 14.02L2.7884 11.01V4.99L8 1.98L13.2116 4.99V11.01ZM11.4916 5.979L8 3.9666L4.5084 5.979V10.021L8 12.0334L11.4916 10.021V5.979ZM9.72 8L9.6856 8.3354L9.591 8.6622L9.4276 8.9546L9.2126 9.2126L8.9546 9.4276L8.6622 9.591L8.3354 9.6856L8 9.72L7.6646 9.6856L7.3378 9.591L7.0454 9.4276L6.7874 9.2126L6.5724 8.9546L6.409 8.6622L6.3144 8.3354L6.28 8L6.3144 7.6646L6.409 7.3378L6.5724 7.0454L6.7874 6.7874L7.0454 6.5724L7.3378 6.409L7.6646 6.3144L8 6.28L8.3354 6.3144L8.6622 6.409L8.9546 6.5724L9.2126 6.7874L9.4276 7.0454L9.591 7.3378L9.6856 7.6646L9.72 8Z" fill="white"/>
</g>
</svg>
