<svg width="76" height="76" viewBox="0 0 76 76" fill="none" xmlns="http://www.w3.org/2000/svg">

<g id="Rank / 12">
<g id="insignia">
<path id="Vector" d="M38.5435 38.4113C48.1965 30.9084 57.7785 23.3161 67.2875 15.6327L67.2912 32.1431C61.2144 36.5875 53.852 41.8782 47.6367 46.0345C52.3711 49.6145 57.7895 54.3362 62.4291 58.1734C64.406 59.8293 66.3975 61.4689 68.4 63.0938L52.8526 63.1595C47.9376 59.7418 42.9806 55.9302 38.155 52.3502C33.1908 55.8992 28.2667 59.5029 23.3845 63.1631C18.123 63.0993 12.8615 63.0756 7.60001 63.0865C9.28879 61.8263 10.9612 60.3564 12.5952 59.0123C17.9826 54.5861 23.297 50.107 28.7317 45.7391C22.562 41.4496 16.0567 36.5073 10.0055 32.0172L9.97633 15.7768C11.9405 16.9932 17.2804 21.5179 19.3941 23.2104C25.7426 28.3205 32.1257 33.3869 38.5435 38.4113Z" fill="white"/>
<path id="Vector_2" d="M30.3001 21.9958C36.8784 20.3015 37.1975 19.6121 39.1963 13.2746C39.2419 13.1287 39.2875 12.9828 39.3313 12.8369C40.5094 19.2711 42.273 20.2942 48.1272 21.9575C43.0408 23.2304 39.9605 25.025 39.3805 30.8099C39.2401 30.602 39.107 30.4014 38.9592 30.199C38.91 28.3551 37.7118 25.6779 36.3166 24.4505C34.5348 22.8839 32.5032 22.448 30.3001 21.9958Z" fill="white"/>
</g>
</g>
</svg>
